<?xml version="1.0" encoding="UTF-8"?>
<svg width="1123px" height="1405px" viewBox="0 0 1123 1405" version="1.1" xmlns="http://www.w3.org/2000/svg" xmlns:xlink="http://www.w3.org/1999/xlink" style="background: #FFFFFF;">
    <!-- Generator: Sketch 48.2 (47327) - http://www.bohemiancoding.com/sketch -->
    <title>01-fig-the_r_landscape</title>
    <desc>Created with Sketch.</desc>
    <defs></defs>
    <g id="01-fig-the_r_landscape" stroke="none" stroke-width="1" fill="none" fill-rule="evenodd">
        <rect id="Rectangle" stroke-opacity="0.5" stroke="#FF9300" stroke-width="6" x="461.252664" y="106.844351" width="202.991964" height="124.216225"></rect>
        <rect id="Rectangle-Copy" stroke-opacity="0.5" stroke="#FF9300" stroke-width="6" x="766.241077" y="120.872233" width="292.740386" height="98.0922647"></rect>
        <rect id="Rectangle-Copy-2" stroke-opacity="0.5" stroke="#FF9300" stroke-width="6" x="67.259614" y="120.872233" width="292.740386" height="98.0922647"></rect>
        <rect id="Rectangle-Copy-3" stroke-opacity="0.502393246" stroke="#EE220C" stroke-width="4" x="415.266658" y="275.869995" width="133.008255" height="70.7300034"></rect>
        <rect id="Rectangle-2" stroke-opacity="0.502393246" stroke="#EE220C" stroke-width="4" x="578" y="275.869995" width="132.387751" height="70.7300034" rx="12"></rect>
        <rect id="Rectangle-2-Copy" stroke-opacity="0.5" stroke="#CB297B" stroke-width="4" x="793.547439" y="275.869995" width="165.940686" height="70.7300034" rx="12"></rect>
        <rect id="Rectangle-2-Copy-3" stroke-opacity="0.5" stroke="#CB297B" stroke-width="4" x="827.012872" y="516.78839" width="99.0098188" height="70.7300034" rx="12"></rect>
        <rect id="Rectangle-2-Copy-2" stroke-opacity="0.5" stroke="#CB297B" stroke-width="4" x="767.398059" y="395.93373" width="218.239446" height="70.7300034" rx="12"></rect>
        <rect id="Rectangle-2-Copy-4" stroke-opacity="0.5" stroke="#CB297B" stroke-width="4" x="767.398059" y="637.902145" width="218.239446" height="70.7300034" rx="12"></rect>
        <rect id="Rectangle-2-Copy-7" stroke-opacity="0.5" stroke="#CB297B" stroke-width="4" x="797.796258" y="817.248359" width="157.443049" height="70.7300034" rx="12"></rect>
        <rect id="Rectangle-2-Copy-8" stroke-opacity="0.5" stroke="#CB297B" stroke-width="4" x="172.686758" y="817.248359" width="157.443049" height="70.7300034" rx="12"></rect>
        <rect id="Rectangle-2-Copy-5" stroke-opacity="0.5" stroke="#004D80" stroke-width="4" x="453.628923" y="729.017581" width="218.239446" height="70.7300034" rx="12"></rect>
        <rect id="Rectangle-2-Copy-6" stroke-opacity="0.5" stroke="#004D80" stroke-width="7" x="451.970686" y="602.885846" width="221.555919" height="69.8539739" rx="12"></rect>
        <rect id="Rectangle-Copy-4" stroke-opacity="0.5" stroke="#FF9300" stroke-width="4" x="96.8996942" y="587.766701" width="233.460226" height="100.092265"></rect>
        <rect id="Rectangle-Copy-5" stroke-opacity="0.5" stroke="#1DB100" stroke-width="4" x="96.8996942" y="982.346623" width="233.460226" height="100.092265"></rect>
        <rect id="Rectangle-Copy-8" stroke-opacity="0.5" stroke="#1DB100" stroke-width="4" x="795.881157" y="982.346623" width="233.460226" height="100.092265"></rect>
        <rect id="Rectangle-Copy-10" stroke-opacity="0.5" stroke="#56C1FF" stroke-width="4" x="450.340881" y="1049" width="224.81553" height="298.538068"></rect>
        <circle id="Oval" stroke-opacity="0.5" stroke="#56C1FF" stroke-width="9" cx="562.748646" cy="480.5" r="71.5"></circle>
        <rect id="Rectangle-Copy-9" stroke-opacity="0.5" stroke="#1DB100" stroke-width="4" x="795.881157" y="1149" width="233.460226" height="100.092265"></rect>
        <rect id="Rectangle-Copy-7" stroke-opacity="0.5" stroke="#1DB100" stroke-width="4" x="96.8996942" y="1148.88072" width="233.460226" height="100.092265"></rect>
        <rect id="Rectangle-Copy-6" stroke-opacity="0.5" stroke="#FF9300" stroke-width="4" x="96.8996942" y="383.069041" width="233.460226" height="100.092265"></rect>
        <text id="The-R-Landscape" font-family="Helvetica" font-size="36" font-weight="normal" fill="#4A4A4A">
            <tspan x="36.7628195" y="63.3887949">The R Landscape</tspan>
        </text>
        <text id="The-R-Foundation" font-family="Helvetica" font-size="30" font-weight="normal" fill="#4A4A4A">
            <tspan x="93.5565648" y="176.193756">The R Foundation</tspan>
        </text>
        <text id="R-Core-Team" font-family="Helvetica" font-size="30" font-weight="normal" fill="#4A4A4A">
            <tspan x="123.607834" y="443">R Core Team</tspan>
        </text>
        <text id="CRAN" font-family="Helvetica" font-size="30" font-weight="normal" fill="#4A4A4A">
            <tspan x="171.127366" y="646">CRAN</tspan>
        </text>
        <text id="R-Packages" font-family="Helvetica-Oblique, Helvetica" font-size="30" font-style="italic" font-weight="normal" fill="#4A4A4A">
            <tspan x="483.125977" y="646">R Packages</tspan>
        </text>
        <text id="Individual-Contribut" font-family="Helvetica-Oblique, Helvetica" font-size="30" font-style="italic" font-weight="normal" fill="#4A4A4A">
            <tspan x="497.623535" y="1294.97299">Individual</tspan>
            <tspan x="479.29834" y="1330.97299">Contributors</tspan>
        </text>
        <text id="R-Packages-Copy" font-family="Helvetica-Oblique, Helvetica" font-size="24" font-style="italic" font-weight="normal" fill="#4A4A4A">
            <tspan x="497.300781" y="762.001784">R Packages</tspan>
        </text>
        <text id="IN-DEVELOPMENT" font-family="Helvetica-Bold, Helvetica" font-size="18" font-weight="bold" fill="#4A4A4A">
            <tspan x="484.74181" y="787.001784">IN DEVELOPMENT</tspan>
        </text>
        <text id="GitHub" font-family="Helvetica" font-size="30" font-weight="normal" fill="#4A4A4A">
            <tspan x="166.945237" y="1040">GitHub</tspan>
        </text>
        <text id="Stack-Overflow-[r]" font-family="Helvetica" font-size="30" font-weight="normal" line-spacing="28" fill="#4A4A4A">
            <tspan x="175.792405" y="1202">Stack</tspan>
            <tspan x="136.629807" y="1230">Overflow</tspan>
            <tspan x="255.531174" y="1229.50195" font-family="Helvetica-Oblique, Helvetica" font-style="italic"> [r]</tspan>
        </text>
        <text id="Twitter-#rstats" font-family="Helvetica" font-size="30" font-weight="normal" line-spacing="28" fill="#4A4A4A">
            <tspan x="867.5" y="1202">Twitter</tspan>
            <tspan x="868.027344" y="1229.50195" font-family="Helvetica-Oblique, Helvetica" font-style="italic">#rstats</tspan>
        </text>
        <text id="RStudio-Community" font-family="Helvetica" font-size="30" font-weight="normal" line-spacing="28" fill="#4A4A4A">
            <tspan x="859.485352" y="1033">RStudio</tspan>
            <tspan x="837" y="1061">Community</tspan>
        </text>
        <path d="M16,16.5972368 L1107.30976,16.5972368" id="Line" stroke="#979797" stroke-width="5" stroke-linecap="square"></path>
        <path d="M16,1390.76654 L1107.30976,1390.76654" id="Line-Copy" stroke="#979797" stroke-width="5" stroke-linecap="square"></path>
        <text id="RStudio,-Inc." font-family="Helvetica" font-size="30" font-weight="normal" fill="#4A4A4A">
            <tspan x="826.623535" y="177.762604">RStudio, Inc.</tspan>
        </text>
        <text id="The-R-Consortium" font-family="Helvetica" font-size="30" font-weight="normal" line-spacing="30" fill="#4A4A4A">
            <tspan x="521.593373" y="170.193756">The R</tspan>
            <tspan x="485.748646" y="200.193756">Consortium</tspan>
        </text>
        <text id="The-R-Consortium" font-family="Helvetica" font-size="30" font-weight="normal" line-spacing="30" fill="#4A4A4A">
            <tspan x="521.593373" y="170.193756">The R</tspan>
            <tspan x="485.748646" y="200.193756">Consortium</tspan>
        </text>
        <text id="R-Markdown" font-family="Helvetica" font-size="24" font-weight="normal" fill="#4A4A4A">
            <tspan x="809.164266" y="317.510387">R Markdown</tspan>
        </text>
        <text id="Members" font-family="Helvetica-Oblique, Helvetica" font-size="24" font-style="italic" font-weight="normal" fill="#4A4A4A">
            <tspan x="430.918879" y="317.510387">Members</tspan>
        </text>
        <text id="Projects" font-family="Helvetica-Oblique, Helvetica" font-size="24" font-style="italic" font-weight="normal" fill="#4A4A4A">
            <tspan x="600.846219" y="317.510387">Projects</tspan>
        </text>
        <text id="R" font-family="Helvetica-Bold, Helvetica" font-size="36" font-weight="bold" fill="#4A4A4A">
            <tspan x="551.749623" y="490.775391">R</tspan>
        </text>
        <text id="RStudio-Desktop" font-family="Helvetica" font-size="24" font-weight="normal" fill="#4A4A4A">
            <tspan x="786.470907" y="439">RStudio Desktop</tspan>
        </text>
        <text id="RStudio-Cloud" font-family="Helvetica" font-size="24" font-weight="normal" fill="#4A4A4A">
            <tspan x="799.138876" y="680">RStudio Cloud</tspan>
        </text>
        <text id="Task-Views" font-family="Helvetica-Oblique, Helvetica" font-size="24" font-style="italic" font-weight="normal" fill="#4A4A4A">
            <tspan x="188.060626" y="858.888751">Task Views</tspan>
        </text>
        <text id="Educational-Material" font-family="Helvetica-Oblique, Helvetica" font-size="24" font-style="italic" font-weight="normal" line-spacing="24" fill="#4A4A4A">
            <tspan x="811.517782" y="852.713038">Educational</tspan>
            <tspan x="825.550985" y="876.713038">Materials</tspan>
        </text>
        <text id="Shiny" font-family="Helvetica" font-size="24" font-weight="normal" fill="#4A4A4A">
            <tspan x="846.500204" y="558">Shiny</tspan>
        </text>
        <g id="Wireframe-Line-01" transform="translate(360.078985, 161.256957)" stroke="#455A64" stroke-width="2">
            <polyline id="arrowhead" stroke-linecap="round" stroke-linejoin="round" points="91.8834006 0.690261869 99.8834006 8.69026187 91.8834006 16.6902619"></polyline>
            <path d="M98.8834006,8.69016305 L0,8.69016305" id="Line"></path>
        </g>
        <g id="Wireframe-Line-01-Copy-11" transform="translate(675.822787, 1189.281746)" stroke="#455A64" stroke-width="2">
            <polyline id="arrowhead" stroke-linecap="round" stroke-linejoin="round" points="111.311324 0.690261869 119.311324 8.69026187 111.311324 16.6902619"></polyline>
            <path d="M118.311324,8.69016305 L0,8.69016305" id="Line"></path>
        </g>
        <g id="Wireframe-Line-01-Copy-12" transform="translate(389.721500, 1198.580564) rotate(-180.000000) translate(-389.721500, -1198.580564) translate(329.721500, 1190.080564)" stroke="#455A64" stroke-width="2">
            <polyline id="arrowhead" stroke-linecap="round" stroke-linejoin="round" points="111.311324 0.690261869 119.311324 8.69026187 111.311324 16.6902619"></polyline>
            <path d="M118.311324,8.69016305 L0,8.69016305" id="Line"></path>
        </g>
        <g id="Wireframe-Line-01-Copy-6" transform="translate(564.334801, 319.513708) rotate(-270.000000) translate(-564.334801, -319.513708) translate(476.334801, 311.013708)" stroke="#455A64" stroke-width="2">
            <polyline id="arrowhead" stroke-linecap="round" stroke-linejoin="round" points="167.894461 0.690261869 175.894461 8.69026187 167.894461 16.6902619"></polyline>
            <path d="M174.894461,8.69016305 L0,8.69016305" id="Line"></path>
        </g>
        <g id="Wireframe-Line-01-Copy-10" transform="translate(214.629807, 300.316109) rotate(-90.000000) translate(-214.629807, -300.316109) translate(132.629807, 291.816109)" stroke="#455A64" stroke-width="2">
            <polyline id="arrowhead" stroke-linecap="round" stroke-linejoin="round" points="155.022428 0.690261869 163.022428 8.69026187 155.022428 16.6902619"></polyline>
            <path d="M162.022428,8.69016305 L0,8.69016305" id="Line"></path>
        </g>
        <g id="Wireframe-Line-01-Copy-7" transform="translate(564.334801, 577.045478) rotate(-90.000000) translate(-564.334801, -577.045478) translate(540.334801, 568.545478)" stroke="#455A64" stroke-width="2">
            <polyline id="arrowhead" stroke-linecap="round" stroke-linejoin="round" points="39.6373722 0.690261869 47.6373722 8.69026187 39.6373722 16.6902619"></polyline>
            <path d="M46.6373722,8.69016305 L0,8.69016305" id="Line"></path>
        </g>
        <g id="Wireframe-Line-01-Copy-9" transform="translate(564.334801, 924.155639) rotate(-90.000000) translate(-564.334801, -924.155639) translate(439.834801, 915.655639)" stroke="#455A64" stroke-width="2">
            <polyline id="arrowhead" stroke-linecap="round" stroke-linejoin="round" points="240.080608 0.690261869 248.080608 8.69026187 240.080608 16.6902619"></polyline>
            <path d="M247.080608,8.69016305 L0,8.69016305" id="Line"></path>
        </g>
        <g id="Wireframe-Line-01-Copy-8" transform="translate(390.972364, 640.081864) rotate(-180.000000) translate(-390.972364, -640.081864) translate(329.972364, 631.581864)" stroke="#455A64" stroke-width="2">
            <polyline id="arrowhead" stroke-linecap="round" stroke-linejoin="round" points="113.152801 0.690261869 121.152801 8.69026187 113.152801 16.6902619"></polyline>
            <path d="M120.152801,8.69016305 L0,8.69016305" id="Line"></path>
        </g>
        <g id="Wireframe-Line-01-Copy-15" transform="translate(421.451667, 433.798732) rotate(-180.000000) translate(-421.451667, -433.798732) translate(331.451667, 424.798732)" stroke="#455A64" stroke-width="2">
            <polyline id="arrowhead" stroke-linecap="round" stroke-linejoin="round" transform="translate(8.493501, 9.019022) rotate(-135.000000) translate(-8.493501, -9.019022) " points="4.49350063 1.01902214 12.4935006 9.01902214 4.49350063 17.0190221"></polyline>
            <path d="M179.632105,11.6901631 C179.632105,11.6901631 66.7490593,11.6901631 17.2622749,11.6901631 C9.42511741,11.6901631 5.58672539,6.15835061 5.58672539,6.15835061" id="Line"></path>
        </g>
        <g id="Wireframe-Line-01-Copy-16" transform="translate(692.881157, 431.298732) scale(-1, 1) rotate(-180.000000) translate(-692.881157, -431.298732) translate(618.881157, 422.798732)" stroke="#455A64" stroke-width="2">
            <polyline id="arrowhead" stroke-linecap="round" stroke-linejoin="round" points="139.863856 0.690261869 147.863856 8.69026187 139.863856 16.6902619"></polyline>
            <path d="M146.863856,8.69016305 C146.863856,8.69016305 51.9908519,8.69016305 10.3994874,8.69016305 C3.81271721,8.69016305 0.586725391,3.15835061 0.586725391,3.15835061" id="Line"></path>
        </g>
        <g id="Wireframe-Line-01-Copy-3" transform="translate(714.977732, 169.756957) scale(-1, 1) translate(-714.977732, -169.756957) translate(664.977732, 161.256957)" stroke="#455A64" stroke-width="2">
            <polyline id="arrowhead" stroke-linecap="round" stroke-linejoin="round" points="91.8834006 0.690261869 99.8834006 8.69026187 91.8834006 16.6902619"></polyline>
            <path d="M98.8834006,8.69016305 L0,8.69016305" id="Line"></path>
        </g>
        <g id="Wireframe-Line-01-Copy-4" transform="translate(876.526311, 371.539646) scale(-1, 1) rotate(-270.000000) translate(-876.526311, -371.539646) translate(851.526311, 363.039646)" stroke="#455A64" stroke-width="2">
            <polyline id="arrowhead" stroke-linecap="round" stroke-linejoin="round" points="41.6155527 0.690261869 49.6155527 8.69026187 41.6155527 16.6902619"></polyline>
            <path d="M48.6155527,8.69016305 L0,8.69016305" id="Line"></path>
        </g>
        <g id="Wireframe-Line-01-Copy-5" transform="translate(876.526311, 491.788390) scale(-1, 1) rotate(-90.000000) translate(-876.526311, -491.788390) translate(851.526311, 483.288390)" stroke="#455A64" stroke-width="2">
            <polyline id="arrowhead" stroke-linecap="round" stroke-linejoin="round" points="41.6155527 0.690261869 49.6155527 8.69026187 41.6155527 16.6902619"></polyline>
            <path d="M48.6155527,8.69016305 L0,8.69016305" id="Line"></path>
        </g>
        <g id="Wireframe-Line-01-Copy" transform="translate(505.566469, 253.088680) rotate(-45.000000) translate(-505.566469, -253.088680) translate(473.566469, 244.588680)" stroke="#455A64" stroke-width="2">
            <polyline id="arrowhead" stroke-linecap="round" stroke-linejoin="round" points="55.2015164 0.690261869 63.2015164 8.69026187 55.2015164 16.6902619"></polyline>
            <path d="M62.2015164,8.69016305 L0,8.69016305" id="Line"></path>
        </g>
        <g id="Wireframe-Line-01-Copy-2" transform="translate(624.446611, 253.088680) scale(-1, 1) rotate(-45.000000) translate(-624.446611, -253.088680) translate(592.446611, 244.588680)" stroke="#455A64" stroke-width="2">
            <polyline id="arrowhead" stroke-linecap="round" stroke-linejoin="round" points="55.2015164 0.690261869 63.2015164 8.69026187 55.2015164 16.6902619"></polyline>
            <path d="M62.2015164,8.69016305 L0,8.69016305" id="Line"></path>
        </g>
        <g id="Wireframe-Line-04" transform="translate(692.766654, 946.269582) scale(1, -1) translate(-692.766654, -946.269582) translate(588.266654, 843.769582)" stroke="#455A64" stroke-width="2">
            <path d="M0.402699087,196.056544 L203.743206,196.056544 C205.953822,196.056544 207.745881,194.269068 207.745881,192.05607 L207.745881,0.350494124" id="bend-line-07" transform="translate(104.074290, 98.203519) scale(-1, 1) translate(-104.074290, -98.203519) "></path>
            <polyline id="Path-2" stroke-linecap="round" stroke-linejoin="round" points="200.745881 188.056544 208.745881 196.056544 200.745881 204.056544"></polyline>
        </g>
        <g id="Wireframe-Line-04-Copy-2" transform="translate(1002.065227, 539.494319) scale(1, -1) rotate(-180.000000) translate(-1002.065227, -539.494319) translate(955.565227, 217.994319)" stroke="#455A64" stroke-width="2">
            <path d="M0.402699087,634.63067 L87.7490736,634.63067 C89.9573588,634.63067 91.7475277,632.84216 91.7475277,630.638488 L91.7475277,0.441360035" id="bend-line-07" transform="translate(46.075113, 317.536015) scale(-1, 1) translate(-46.075113, -317.536015) "></path>
            <polyline id="Path-2" stroke-linecap="round" stroke-linejoin="round" points="84.7475277 626.63067 92.7475277 634.63067 84.7475277 642.63067"></polyline>
        </g>
        <g id="Wireframe-Line-04-Copy-12" transform="translate(1043.065227, 628.846724) scale(1, -1) rotate(-180.000000) translate(-1043.065227, -628.846724) translate(1029.565227, 217.846724)" stroke="#455A64" stroke-width="2">
            <path d="M0.402699087,813.175569 L21.8515059,813.175569 C24.06351,813.175569 25.8566935,811.376756 25.8566935,809.165815 L25.8566935,0.342719929" id="bend-line-07" transform="translate(13.129696, 406.759144) scale(-1, 1) translate(-13.129696, -406.759144) "></path>
            <polyline id="Path-2" stroke-linecap="round" stroke-linejoin="round" points="18.8566935 805.175569 26.8566935 813.175569 18.8566935 821.175569"></polyline>
        </g>
        <g id="Wireframe-Line-04-Copy-10" transform="translate(856.065227, 495.663644) scale(1, -1) rotate(-180.000000) translate(-856.065227, -495.663644) translate(671.565227, 217.663644)" stroke="#455A64" stroke-width="2">
            <path d="M0.402699087,547.401868 L363.296508,547.401868 C365.503048,547.401868 367.291802,545.608813 367.291802,543.40375 L367.291802,0.992479641" id="bend-line-07" transform="translate(183.847251, 274.197174) scale(-1, 1) translate(-183.847251, -274.197174) "></path>
            <polyline id="Path-2" stroke-linecap="round" stroke-linejoin="round" points="360.291802 539.401868 368.291802 547.401868 360.291802 555.401868"></polyline>
        </g>
        <g id="Wireframe-Line-04-Copy-3" transform="translate(1009.065227, 448.929120) scale(1, -1) rotate(-180.000000) translate(-1009.065227, -448.929120) translate(985.565227, 217.929120)" stroke="#455A64" stroke-width="2">
            <path d="M0.402699087,453.800537 L41.5224127,453.800537 C43.7340206,453.800537 45.526883,452.005911 45.526883,449.79575 L45.526883,0.585984697" id="bend-line-07" transform="translate(22.964791, 227.193261) scale(-1, 1) translate(-22.964791, -227.193261) "></path>
            <polyline id="Path-2" stroke-linecap="round" stroke-linejoin="round" points="38.526883 445.800537 46.526883 453.800537 38.526883 461.800537"></polyline>
        </g>
        <g id="Wireframe-Line-04-Copy-4" transform="translate(975.380425, 389.372320) scale(1, -1) rotate(-180.000000) translate(-975.380425, -389.372320) translate(925.880425, 217.872320)" stroke="#455A64" stroke-width="2">
            <path d="M0.402699087,334.295471 L93.2407819,334.295471 C95.4540468,334.295471 97.2482525,332.499052 97.2482525,330.297933 L97.2482525,0.632860867" id="bend-line-07" transform="translate(48.825476, 167.464166) scale(-1, 1) translate(-48.825476, -167.464166) "></path>
            <polyline id="Path-2" stroke-linecap="round" stroke-linejoin="round" points="90.2482525 326.295471 98.2482525 334.295471 90.2482525 342.295471"></polyline>
        </g>
        <g id="Wireframe-Line-04-Copy-5" transform="translate(1001.565227, 328.926720) scale(1, -1) rotate(-180.000000) translate(-1001.565227, -328.926720) translate(985.565227, 217.926720)" stroke="#455A64" stroke-width="2">
            <path d="M0.402699087,214.438609 L26.1143247,214.438609 C28.3279592,214.438609 30.1224645,212.652684 30.1224645,210.447163 L30.1224645,0.539403013" id="bend-line-07" transform="translate(15.262582, 107.489006) scale(-1, 1) translate(-15.262582, -107.489006) "></path>
            <polyline id="Path-2" stroke-linecap="round" stroke-linejoin="round" points="23.1224645 205.927412 31.1224645 213.927412 23.1224645 221.927412"></polyline>
        </g>
        <g id="Wireframe-Line-04-Copy-6" transform="translate(984.968428, 268.758318) scale(1, -1) rotate(-180.000000) translate(-984.968428, -268.758318) translate(959.468428, 218.258318)" stroke="#455A64" stroke-width="2">
            <path d="M0.402699087,92.214578 L45.2078972,92.214578 C47.4133875,92.214578 49.2012907,90.4253 49.2012907,88.2131387 L49.2012907,0.248135507" id="bend-line-07" transform="translate(24.801995, 46.231357) scale(-1, 1) translate(-24.801995, -46.231357) "></path>
            <polyline id="Path-2" stroke-linecap="round" stroke-linejoin="round" points="42.2012907 84.214578 50.2012907 92.214578 42.2012907 100.214578"></polyline>
        </g>
        <g id="Wireframe-Line-04-Copy" transform="translate(435.685839, 946.884916) scale(-1, -1) translate(-435.685839, -946.884916) translate(331.685839, 843.884916)" stroke="#455A64" stroke-width="2">
            <path d="M0.402699087,197.171877 L202.048256,197.171877 C204.253307,197.171877 206.040853,195.379319 206.040853,193.171322 L206.040853,0.898093328" id="bend-line-07" transform="translate(103.221776, 99.034985) scale(-1, 1) translate(-103.221776, -99.034985) "></path>
            <polyline id="Path-2" stroke-linecap="round" stroke-linejoin="round" points="199.040853 189.171877 207.040853 197.171877 199.040853 205.171877"></polyline>
        </g>
        <g id="Wireframe-Line-04" transform="translate(617.000000, 525.000000)" stroke="#455A64" stroke-width="2">
            <path d="M0.538578869,148.660801 L66.6971547,148.660801 C68.9054135,148.660801 70.695561,146.869975 70.695561,144.658773 L70.695561,10.0020288 C70.695561,7.79176934 72.4877714,5.99054577 74.7053968,5.98424983 C74.7053968,5.98424983 75.9483012,5.93143393 141.503802,6 C145.999452,6.00470211 148.965223,0.69277199 148.965223,0.69277199" id="bend-line-07" transform="translate(74.751901, 74.676787) scale(-1, 1) translate(-74.751901, -74.676787) "></path>
            <polyline id="Path-2" stroke-linecap="round" stroke-linejoin="round" points="141.965223 140.660801 149.965223 148.660801 141.965223 156.660801"></polyline>
        </g>
        <g id="Wireframe-Line-04-Copy-7" transform="translate(418.500000, 573.500000) scale(-1, 1) translate(-418.500000, -573.500000) translate(330.000000, 525.000000)" stroke="#455A64" stroke-width="2">
            <path d="M0.538578869,88.7750555 L79.006394,88.7750555 C81.2187047,88.7750555 83.0121368,86.983851 83.0121368,84.7720469 L83.0121368,9.78332804 C83.0121368,7.57252742 84.8067657,5.7753928 87.0085895,5.77201316 C87.0085895,5.77201316 89.1870343,5.74043022 166.251287,5.7803194 C171.536181,5.78305492 175.022616,0.69277199 175.022616,0.69277199" id="bend-line-07" transform="translate(87.780597, 44.733914) scale(-1, 1) translate(-87.780597, -44.733914) "></path>
            <polyline id="Path-2" stroke-linecap="round" stroke-linejoin="round" points="168.022616 80.7750555 176.022616 88.7750555 168.022616 96.7750555"></polyline>
        </g>
        <g id="Wireframe-Line-04" transform="translate(364.721500, 718.021666) scale(-1, -1) translate(-364.721500, -718.021666) translate(275.721500, 687.521666)" stroke="#455A64" stroke-width="2">
            <path d="M5.68434189e-14,59.0310289 C5.68434189e-14,59.0310289 5.68434189e-14,57.2321155 5.68434189e-14,55.0315623 L5.68434189e-14,3.99946666 C5.68434189e-14,1.79062222 1.78697247,0 3.99779113,0 L169.31946,0" id="bend-line-07" transform="translate(84.659730, 29.515514) scale(-1, 1) translate(-84.659730, -29.515514) "></path>
            <polyline id="Path-2" stroke-linecap="round" stroke-linejoin="round" transform="translate(169.319460, 56.031029) rotate(-270.000000) translate(-169.319460, -56.031029) " points="165.31946 48.0310289 173.31946 56.0310289 165.31946 64.0310289"></polyline>
        </g>
        <g id="Wireframe-Line-04-Copy-8" transform="translate(153.718600, 770.161896) scale(-1, -1) translate(-153.718600, -770.161896) translate(134.718600, 688.161896)" stroke="#455A64" stroke-width="2">
            <path d="M5.68434189e-14,162.192924 C5.68434189e-14,162.192924 5.68434189e-14,160.399163 5.68434189e-14,158.183639 L5.68434189e-14,4.00928555 C5.68434189e-14,1.79501828 1.78437752,0 4.00937334,0 L29.9594165,0" id="bend-line-07" transform="translate(14.979708, 81.096462) scale(-1, 1) translate(-14.979708, -81.096462) "></path>
            <polyline id="Path-2" stroke-linecap="round" stroke-linejoin="round" transform="translate(29.959417, 159.192924) rotate(-270.000000) translate(-29.959417, -159.192924) " points="25.9594165 151.192924 33.9594165 159.192924 25.9594165 167.192924"></polyline>
        </g>
        <rect id="Rectangle-3" fill="#FFFFFF" x="488" y="847.815423" width="8" height="8.3691544"></rect>
        <g id="Wireframe-Line-04-Copy-9" transform="translate(410.913537, 909.060124) scale(-1, -1) rotate(-90.000000) translate(-410.913537, -909.060124) translate(301.913537, 828.060124)" stroke="#455A64" stroke-width="2">
            <path d="M5.68434189e-14,160.135422 C5.68434189e-14,160.135422 5.68434189e-14,158.337026 5.68434189e-14,156.137044 L5.68434189e-14,3.99837782 C5.68434189e-14,1.79013473 1.78282596,0 4.00534344,0 L209.886471,0" id="bend-line-07" transform="translate(104.943236, 80.067711) scale(-1, 1) translate(-104.943236, -80.067711) "></path>
            <polyline id="Path-2" stroke-linecap="round" stroke-linejoin="round" transform="translate(209.886471, 157.135422) rotate(-270.000000) translate(-209.886471, -157.135422) " points="205.886471 149.135422 213.886471 157.135422 205.886471 165.135422"></polyline>
        </g>
        <rect id="Rectangle-3" fill-opacity="0.903023098" fill="#FFFFFF" x="1005.61245" y="229.06305" width="71.2150021" height="29.8052223"></rect>
        <text id="develops" font-family="Helvetica-Oblique, Helvetica" font-size="24" font-style="italic" font-weight="normal" fill="#4A4A4A">
            <tspan x="984.530071" y="251">develops</tspan>
        </text>
        <text id="funds" font-family="Helvetica-Oblique, Helvetica" font-size="24" font-style="italic" font-weight="normal" fill="#4A4A4A">
            <tspan x="636.144531" y="259">funds</tspan>
        </text>
        <text id="part-of" font-family="Helvetica-Oblique, Helvetica" font-size="24" font-style="italic" font-weight="normal" fill="#4A4A4A">
            <tspan x="424.166308" y="259">part of</tspan>
        </text>
        <text id="part-of-copy" font-family="Helvetica-Oblique, Helvetica" font-size="24" font-style="italic" font-weight="normal" fill="#4A4A4A">
            <tspan x="372.666308" y="157.469147">part of</tspan>
        </text>
        <text id="develops" font-family="Helvetica-Oblique, Helvetica" font-size="24" font-style="italic" font-weight="normal" fill="#4A4A4A">
            <tspan x="365.464844" y="419.539646">develops</tspan>
        </text>
        <text id="extend" font-family="Helvetica-Oblique, Helvetica" font-size="24" font-style="italic" font-weight="normal" fill="#4A4A4A">
            <tspan x="572.470703" y="587">extend</tspan>
        </text>
        <text id="supports" font-family="Helvetica-Oblique, Helvetica" font-size="24" font-style="italic" font-weight="normal" fill="#4A4A4A">
            <tspan x="571.5" y="383">supports</tspan>
        </text>
        <text id="integrated-in" font-family="Helvetica-Oblique, Helvetica" font-size="24" font-style="italic" font-weight="normal" line-spacing="23" fill="#4A4A4A">
            <tspan x="639.748646" y="459">integrated</tspan>
            <tspan x="683.781849" y="482">in</tspan>
        </text>
        <text id="integrated-in" font-family="Helvetica-Oblique, Helvetica" font-size="24" font-style="italic" font-weight="normal" line-spacing="23" fill="#4A4A4A">
            <tspan x="735.498682" y="381">integrated in</tspan>
        </text>
        <text id="integrated-in-copy" font-family="Helvetica-Oblique, Helvetica" font-size="24" font-style="italic" font-weight="normal" line-spacing="23" fill="#4A4A4A">
            <tspan x="735.498682" y="507">integrated in</tspan>
        </text>
        <text id="integrated-in" transform="translate(713.054580, 597.482393) rotate(-270.000000) translate(-713.054580, -597.482393) " font-family="Helvetica-Oblique, Helvetica" font-size="24" font-style="italic" font-weight="normal" line-spacing="23" fill="#4A4A4A">
            <tspan x="636.05458" y="608.982393">integrated in</tspan>
        </text>
        <text id="submitted-to" font-family="Helvetica-Oblique, Helvetica" font-size="24" font-style="italic" font-weight="normal" fill="#4A4A4A">
            <tspan x="303.972364" y="736.021666">submitted to</tspan>
        </text>
        <text id="hosted-in" transform="translate(121.500000, 773.000000) rotate(-90.000000) translate(-121.500000, -773.000000) " font-family="Helvetica-Oblique, Helvetica" font-size="24" font-style="italic" font-weight="normal" fill="#4A4A4A">
            <tspan x="72.5" y="781.5">hosted in</tspan>
        </text>
        <text id="hosted-in" font-family="Helvetica-Oblique, Helvetica" font-size="24" font-style="italic" font-weight="normal" line-spacing="23" fill="#4A4A4A">
            <tspan x="332" y="583.775391">hosted</tspan>
            <tspan x="358.689453" y="606.775391">in</tspan>
        </text>
        <text id="hosted-in" font-family="Helvetica-Oblique, Helvetica" font-size="24" font-style="italic" font-weight="normal" line-spacing="23" fill="#4A4A4A">
            <tspan x="340.5" y="673">hosted in</tspan>
        </text>
        <text id="hosted-in-copy" font-family="Helvetica-Oblique, Helvetica" font-size="24" font-style="italic" font-weight="normal" line-spacing="23" fill="#4A4A4A">
            <tspan x="361.5" y="1005.36938">hosted in</tspan>
        </text>
        <text id="part-of-copy-3" transform="translate(194.916335, 303.397223) rotate(-90.000000) translate(-194.916335, -303.397223) " font-family="Helvetica-Oblique, Helvetica" font-size="24" font-style="italic" font-weight="normal" fill="#4A4A4A">
            <tspan x="160.896804" y="311.897223">part of</tspan>
        </text>
        <text id="part-of-copy-2" font-family="Helvetica-Oblique, Helvetica" font-size="24" font-style="italic" font-weight="normal" fill="#4A4A4A">
            <tspan x="682.480469" y="157.469147">part of</tspan>
        </text>
        <g id="Wireframe-Line-04" transform="translate(735.498682, 1060.500000) scale(1, -1) translate(-735.498682, -1060.500000) translate(674.998682, 1022.000000)" stroke="#455A64" stroke-width="2">
            <path d="M5.68434189e-14,68.8539739 L50.7416335,68.8539739 C52.9526222,68.8539739 54.7449828,67.0652659 54.7449828,64.8544814 L54.7449828,3.99949248 C54.7449828,1.79063378 56.5406531,0 58.7383035,0 L119.362012,0" id="bend-line-07" transform="translate(59.681006, 34.426987) scale(-1, 1) translate(-59.681006, -34.426987) "></path>
            <polyline id="Path-2" stroke-linecap="round" stroke-linejoin="round" points="112.362012 60.8539739 120.362012 68.8539739 112.362012 76.8539739"></polyline>
        </g>
        <g id="Wireframe-Line-04-Copy-11" transform="translate(390.221500, 1073.000000) scale(-1, -1) translate(-390.221500, -1073.000000) translate(330.221500, 1047.000000)" stroke="#455A64" stroke-width="2">
            <path d="M5.68434189e-14,43.1422796 L50.3366891,43.1422796 C52.5431494,43.1422796 54.3318389,41.3434359 54.3318389,39.1416131 L54.3318389,4.00066653 C54.3318389,1.79115942 56.1139579,0 58.3312962,0 L118.461223,0" id="bend-line-07" transform="translate(59.230611, 21.571140) scale(-1, 1) translate(-59.230611, -21.571140) "></path>
            <polyline id="Path-2" stroke-linecap="round" stroke-linejoin="round" points="111.461223 35.1422796 119.461223 43.1422796 111.461223 51.1422796"></polyline>
        </g>
        <text id="part-of-copy" font-family="Helvetica-Oblique, Helvetica" font-size="24" font-style="italic" font-weight="normal" fill="#4A4A4A">
            <tspan x="356.952832" y="1122">part of</tspan>
        </text>
        <text id="part-of-copy-4" font-family="Helvetica-Oblique, Helvetica" font-size="24" font-style="italic" font-weight="normal" fill="#4A4A4A">
            <tspan x="356.952832" y="1186.97916">part of</tspan>
        </text>
        <text id="part-of-copy-6" font-family="Helvetica-Oblique, Helvetica" font-size="24" font-style="italic" font-weight="normal" fill="#4A4A4A">
            <tspan x="696.480469" y="1122">part of</tspan>
        </text>
        <text id="part-of-copy-5" font-family="Helvetica-Oblique, Helvetica" font-size="24" font-style="italic" font-weight="normal" fill="#4A4A4A">
            <tspan x="696.480469" y="1186.97916">part of</tspan>
        </text>
        <rect id="Rectangle-3" fill-opacity="0.903023098" fill="#FFFFFF" x="529.047223" y="992.194778" width="71.2150021" height="29.8052223"></rect>
        <text id="develops" font-family="Helvetica-Oblique, Helvetica" font-size="24" font-style="italic" font-weight="normal" fill="#4A4A4A">
            <tspan x="516.964844" y="1014.13173">develops</tspan>
        </text>
        <g id="Group" transform="translate(460.000000, 1056.979162)" stroke-opacity="0.5">
            <circle id="Oval-2" stroke="#004D80" stroke-width="10" fill-opacity="0.20422894" fill="#004D80" cx="104.259662" cy="105.132128" r="30.9725356"></circle>
            <circle id="Oval-2-Copy" stroke="#1DB100" stroke-width="5" fill-opacity="0.2" fill="#1DB100" cx="104.259662" cy="44.7466275" r="19.1903001"></circle>
            <circle id="Oval-2-Copy-5" stroke="#1DB100" stroke-width="5" fill-opacity="0.2" fill="#1DB100" cx="145.701787" cy="63.0644618" r="19.1903001"></circle>
            <circle id="Oval-2-Copy-6" stroke="#1DB100" stroke-width="5" fill-opacity="0.2" fill="#1DB100" cx="145.701787" cy="146.570306" r="19.1903001"></circle>
            <circle id="Oval-2-Copy-3" stroke="#1DB100" stroke-width="5" fill-opacity="0.2" fill="#1DB100" cx="104.259662" cy="164.892088" r="19.1903001"></circle>
            <circle id="Oval-2-Copy-2" stroke="#1DB100" stroke-width="5" fill-opacity="0.2" fill="#1DB100" cx="164.019622" cy="105.132128" r="19.1903001"></circle>
            <circle id="Oval-2-Copy-9" stroke="#1DB100" stroke-width="5" fill-opacity="0.2" fill="#1DB100" cx="62.8175371" cy="63.0644618" r="19.1903001"></circle>
            <circle id="Oval-2-Copy-8" stroke="#1DB100" stroke-width="5" fill-opacity="0.2" fill="#1DB100" cx="62.8175371" cy="146.570306" r="19.1903001"></circle>
            <circle id="Oval-2-Copy-4" stroke="#1DB100" stroke-width="5" fill-opacity="0.2" fill="#1DB100" cx="44.4997027" cy="105.132128" r="19.1903001"></circle>
            <circle id="Oval-2-Copy-15" stroke="#CB297B" stroke-width="3" fill-opacity="0.2" fill="#CB297B" cx="138.05225" cy="23.5711494" r="14.8400725"></circle>
            <circle id="Oval-2-Copy-11" stroke="#CB297B" stroke-width="3" fill-opacity="0.2" fill="#CB297B" cx="71.2449404" cy="23.0515094" r="14.8400725"></circle>
            <circle id="Oval-2-Copy-18" stroke="#FF9300" stroke-width="2" fill-opacity="0.2" fill="#FF9300" cx="115.428598" cy="16.7185955" r="5.37421556"></circle>
            <circle id="Oval-2-Copy-19" stroke="#FF9300" stroke-width="2" fill-opacity="0.2" fill="#FF9300" cx="104.680167" cy="5.97016432" r="5.37421556"></circle>
            <circle id="Oval-2-Copy-14" stroke="#FF9300" stroke-width="2" fill-opacity="0.2" fill="#FF9300" cx="94.4430216" cy="16.7185955" r="5.37421556"></circle>
            <circle id="Oval-2-Copy-18" stroke="#FF9300" stroke-width="2" fill-opacity="0.2" fill="#FF9300" transform="translate(93.800873, 193.545661) rotate(-180.000000) translate(-93.800873, -193.545661) " cx="93.8008732" cy="193.545661" r="5.37421556"></circle>
            <circle id="Oval-2-Copy-19" stroke="#FF9300" stroke-width="2" fill-opacity="0.2" fill="#FF9300" transform="translate(104.549304, 204.294092) rotate(-180.000000) translate(-104.549304, -204.294092) " cx="104.549304" cy="204.294092" r="5.37421556"></circle>
            <circle id="Oval-2-Copy-14" stroke="#FF9300" stroke-width="2" fill-opacity="0.2" fill="#FF9300" transform="translate(114.786450, 193.545661) rotate(-180.000000) translate(-114.786450, -193.545661) " cx="114.78645" cy="193.545661" r="5.37421556"></circle>
            <circle id="Oval-2-Copy-18" stroke="#FF9300" stroke-width="2" fill-opacity="0.2" fill="#FF9300" transform="translate(34.923541, 159.523305) rotate(-135.000000) translate(-34.923541, -159.523305) " cx="34.9235409" cy="159.523305" r="5.37421556"></circle>
            <circle id="Oval-2-Copy-19" stroke="#FF9300" stroke-width="2" fill-opacity="0.2" fill="#FF9300" transform="translate(34.923541, 174.723882) rotate(-135.000000) translate(-34.923541, -174.723882) " cx="34.9235409" cy="174.723882" r="5.37421556"></circle>
            <circle id="Oval-2-Copy-14" stroke="#FF9300" stroke-width="2" fill-opacity="0.2" fill="#FF9300" transform="translate(49.762585, 174.362348) rotate(-135.000000) translate(-49.762585, -174.362348) " cx="49.7625845" cy="174.362348" r="5.37421556"></circle>
            <circle id="Oval-2-Copy-18" stroke="#FF9300" stroke-width="2" fill-opacity="0.2" fill="#FF9300" transform="translate(191.595586, 115.590917) rotate(-270.000000) translate(-191.595586, -115.590917) " cx="191.595586" cy="115.590917" r="5.37421556"></circle>
            <circle id="Oval-2-Copy-19" stroke="#FF9300" stroke-width="2" fill-opacity="0.2" fill="#FF9300" transform="translate(202.344017, 104.842486) rotate(-270.000000) translate(-202.344017, -104.842486) " cx="202.344017" cy="104.842486" r="5.37421556"></circle>
            <circle id="Oval-2-Copy-14" stroke="#FF9300" stroke-width="2" fill-opacity="0.2" fill="#FF9300" transform="translate(191.595586, 94.605340) rotate(-270.000000) translate(-191.595586, -94.605340) " cx="191.595586" cy="94.6053403" r="5.37421556"></circle>
            <circle id="Oval-2-Copy-18" stroke="#FF9300" stroke-width="2" fill-opacity="0.2" fill="#FF9300" transform="translate(16.880734, 94.673339) rotate(-90.000000) translate(-16.880734, -94.673339) " cx="16.880734" cy="94.673339" r="5.37421556"></circle>
            <circle id="Oval-2-Copy-19" stroke="#FF9300" stroke-width="2" fill-opacity="0.2" fill="#FF9300" transform="translate(6.132303, 105.421770) rotate(-90.000000) translate(-6.132303, -105.421770) " cx="6.13230288" cy="105.42177" r="5.37421556"></circle>
            <circle id="Oval-2-Copy-14" stroke="#FF9300" stroke-width="2" fill-opacity="0.2" fill="#FF9300" transform="translate(16.880734, 115.658916) rotate(-90.000000) translate(-16.880734, -115.658916) " cx="16.880734" cy="115.658916" r="5.37421556"></circle>
            <circle id="Oval-2-Copy-18" stroke="#FF9300" stroke-width="2" fill-opacity="0.2" fill="#FF9300" transform="translate(50.326549, 35.434269) rotate(-45.000000) translate(-50.326549, -35.434269) " cx="50.3265491" cy="35.4342686" r="5.37421556"></circle>
            <circle id="Oval-2-Copy-19" stroke="#FF9300" stroke-width="2" fill-opacity="0.2" fill="#FF9300" transform="translate(35.125972, 35.434269) rotate(-45.000000) translate(-35.125972, -35.434269) " cx="35.125972" cy="35.4342686" r="5.37421556"></circle>
            <circle id="Oval-2-Copy-14" stroke="#FF9300" stroke-width="2" fill-opacity="0.2" fill="#FF9300" transform="translate(35.487505, 50.273312) rotate(-45.000000) translate(-35.487505, -50.273312) " cx="35.4875054" cy="50.2733122" r="5.37421556"></circle>
            <circle id="Oval-2-Copy-18" stroke="#FF9300" stroke-width="2" fill-opacity="0.2" fill="#FF9300" transform="translate(172.982011, 50.445200) rotate(-315.000000) translate(-172.982011, -50.445200) " cx="172.982011" cy="50.4452002" r="5.37421556"></circle>
            <circle id="Oval-2-Copy-19" stroke="#FF9300" stroke-width="2" fill-opacity="0.2" fill="#FF9300" transform="translate(172.982011, 35.244623) rotate(-315.000000) translate(-172.982011, -35.244623) " cx="172.982011" cy="35.2446231" r="5.37421556"></circle>
            <circle id="Oval-2-Copy-14" stroke="#FF9300" stroke-width="2" fill-opacity="0.2" fill="#FF9300" transform="translate(158.142967, 35.606157) rotate(-315.000000) translate(-158.142967, -35.606157) " cx="158.142967" cy="35.6061565" r="5.37421556"></circle>
            <circle id="Oval-2-Copy-18" stroke="#FF9300" stroke-width="2" fill-opacity="0.2" fill="#FF9300" transform="translate(158.191050, 174.535086) rotate(-225.000000) translate(-158.191050, -174.535086) " cx="158.19105" cy="174.535086" r="5.37421556"></circle>
            <circle id="Oval-2-Copy-19" stroke="#FF9300" stroke-width="2" fill-opacity="0.2" fill="#FF9300" transform="translate(173.391627, 174.535086) rotate(-225.000000) translate(-173.391627, -174.535086) " cx="173.391627" cy="174.535086" r="5.37421556"></circle>
            <circle id="Oval-2-Copy-14" stroke="#FF9300" stroke-width="2" fill-opacity="0.2" fill="#FF9300" transform="translate(173.030093, 159.696042) rotate(-225.000000) translate(-173.030093, -159.696042) " cx="173.030093" cy="159.696042" r="5.37421556"></circle>
            <circle id="Oval-2-Copy-17" stroke="#CB297B" stroke-width="3" fill-opacity="0.2" fill="#CB297B" cx="138.205585" cy="186.588005" r="14.8400725"></circle>
            <circle id="Oval-2-Copy-13" stroke="#CB297B" stroke-width="3" fill-opacity="0.2" fill="#CB297B" cx="70.6418586" cy="186.735206" r="14.8400725"></circle>
            <circle id="Oval-2-Copy-15" stroke="#CB297B" stroke-width="3" fill-opacity="0.2" fill="#CB297B" transform="translate(185.877623, 138.960340) rotate(-270.000000) translate(-185.877623, -138.960340) " cx="185.877623" cy="138.96034" r="14.8400725"></circle>
            <circle id="Oval-2-Copy-11" stroke="#CB297B" stroke-width="3" fill-opacity="0.2" fill="#CB297B" transform="translate(185.492191, 70.800460) rotate(-270.000000) translate(-185.492191, -70.800460) " cx="185.492191" cy="70.8004603" r="14.8400725"></circle>
            <circle id="Oval-2-Copy-16" stroke="#CB297B" stroke-width="3" fill-opacity="0.2" fill="#CB297B" transform="translate(22.635311, 139.051195) rotate(-270.000000) translate(-22.635311, -139.051195) " cx="22.6353107" cy="139.051195" r="14.8400725"></circle>
            <circle id="Oval-2-Copy-12" stroke="#CB297B" stroke-width="3" fill-opacity="0.2" fill="#CB297B" transform="translate(23.123071, 70.467074) rotate(-270.000000) translate(-23.123071, -70.467074) " cx="23.123071" cy="70.4670744" r="14.8400725"></circle>
        </g>
    </g>
</svg>